solid Домик
facet normal 0.0 0.0 -1.0
  outer loop
    vertex 12.5 55.0 0.0
    vertex 0.0 50.0 0.0
    vertex 0.0 55.0 0.0
  endloop
endfacet
facet normal 0.0 0.0 -1.0
  outer loop
    vertex 0.0 50.0 0.0
    vertex 12.5 55.0 0.0
    vertex 12.5 50.0 0.0
  endloop
endfacet
facet normal -0.0 -0.0 1.0
  outer loop
    vertex 55.0 -5.0 50.0
    vertex 50.0 -0.0013259999999978955 50.0
    vertex 49.99988383382703 -5.000047842661219 50.0
  endloop
endfacet
facet normal -0.0 -0.0 1.0
  outer loop
    vertex 50.0 -0.0013259999999978955 50.0
    vertex 55.0 -5.0 50.0
    vertex 50.0 50.0 50.0
  endloop
endfacet
facet normal -0.0 -0.0 1.0
  outer loop
    vertex 50.0 50.0 50.0
    vertex 55.0 -5.0 50.0
    vertex 50.0 55.0 50.0
  endloop
endfacet
facet normal -0.0 -0.0 1.0
  outer loop
    vertex 50.0 55.0 50.0
    vertex 55.0 -5.0 50.0
    vertex 55.0 55.0 50.0
  endloop
endfacet
facet normal -1.0 0.0 0.0
  outer loop
    vertex -5.0 -5.0 50.0
    vertex -5.0 15.219930638635535 32.48716393295385
    vertex -5.0 -5.0 0.0
  endloop
endfacet
facet normal -1.0 0.0 0.0
  outer loop
    vertex -5.0 15.219930638635535 32.48716393295385
    vertex -5.0 -5.0 50.0
    vertex -5.0 17.49099904061278 34.763313221644935
  endloop
endfacet
facet normal -1.0 0.0 0.0
  outer loop
    vertex -5.0 17.49099904061278 34.763313221644935
    vertex -5.0 -5.0 50.0
    vertex -5.0 20.27379344876145 36.37410884891887
  endloop
endfacet
facet normal -1.0 0.0 0.0
  outer loop
    vertex -5.0 20.27379344876145 36.37410884891887
    vertex -5.0 -5.0 50.0
    vertex -5.0 50.0 50.0
  endloop
endfacet
facet normal -1.0 0.0 0.0
  outer loop
    vertex -5.0 -5.0 0.0
    vertex -5.0 15.219930638635535 32.48716393295385
    vertex -5.0 13.61535780130648 29.700776795355388
  endloop
endfacet
facet normal -1.0 0.0 0.0
  outer loop
    vertex -5.0 -5.0 0.0
    vertex -5.0 13.61535780130648 29.700776795355388
    vertex -5.0 12.786629515807597 26.59403948755441
  endloop
endfacet
facet normal -1.0 0.0 0.0
  outer loop
    vertex -5.0 20.27379344876145 36.37410884891887
    vertex -5.0 50.0 50.0
    vertex -5.0 23.37867102295141 37.20977775474261
  endloop
endfacet
facet normal -1.0 0.0 0.0
  outer loop
    vertex -5.0 23.37867102295141 37.20977775474261
    vertex -5.0 50.0 50.0
    vertex -5.0 26.59403948755441 37.2133704841924
  endloop
endfacet
facet normal -1.0 0.0 0.0
  outer loop
    vertex -5.0 26.59403948755441 37.2133704841924
    vertex -5.0 50.0 50.0
    vertex -5.0 29.70077679535538 36.38464219869352
  endloop
endfacet
facet normal -1.0 0.0 0.0
  outer loop
    vertex -5.0 29.70077679535538 36.38464219869352
    vertex -5.0 50.0 50.0
    vertex -5.0 32.48716393295385 34.78006936136446
  endloop
endfacet
facet normal -1.0 0.0 0.0
  outer loop
    vertex -5.0 32.48716393295385 34.78006936136446
    vertex -5.0 50.0 50.0
    vertex -5.0 34.763313221644935 32.509000959387215
  endloop
endfacet
facet normal -1.0 0.0 0.0
  outer loop
    vertex -5.0 34.763313221644935 32.509000959387215
    vertex -5.0 50.0 50.0
    vertex -5.0 36.37410884891888 29.726206551238544
  endloop
endfacet
facet normal -1.0 0.0 0.0
  outer loop
    vertex -5.0 36.37410884891888 29.726206551238544
    vertex -5.0 50.0 50.0
    vertex -5.0 37.20977775474261 26.62132897704859
  endloop
endfacet
facet normal -1.0 0.0 0.0
  outer loop
    vertex -5.0 37.20977775474261 26.62132897704859
    vertex -5.0 50.0 50.0
    vertex -5.0 37.213370484192396 23.405960512445578
  endloop
endfacet
facet normal -1.0 0.0 0.0
  outer loop
    vertex -5.0 -5.0 0.0
    vertex -5.0 20.29922320464461 13.61535780130648
    vertex -5.0 50.0 0.0
  endloop
endfacet
facet normal -1.0 0.0 0.0
  outer loop
    vertex -5.0 20.29922320464461 13.61535780130648
    vertex -5.0 -5.0 0.0
    vertex -5.0 17.512836067046152 15.219930638635535
  endloop
endfacet
facet normal -1.0 0.0 0.0
  outer loop
    vertex -5.0 17.512836067046152 15.219930638635535
    vertex -5.0 -5.0 0.0
    vertex -5.0 15.23668677835507 17.49099904061278
  endloop
endfacet
facet normal -1.0 0.0 0.0
  outer loop
    vertex -5.0 15.23668677835507 17.49099904061278
    vertex -5.0 -5.0 0.0
    vertex -5.0 13.625891151081122 20.27379344876145
  endloop
endfacet
facet normal -1.0 0.0 0.0
  outer loop
    vertex -5.0 13.625891151081122 20.27379344876145
    vertex -5.0 -5.0 0.0
    vertex -5.0 12.790222245257391 23.37867102295141
  endloop
endfacet
facet normal -1.0 0.0 0.0
  outer loop
    vertex -5.0 12.790222245257391 23.37867102295141
    vertex -5.0 -5.0 0.0
    vertex -5.0 12.786629515807597 26.59403948755441
  endloop
endfacet
facet normal -1.0 0.0 0.0
  outer loop
    vertex -5.0 50.0 0.0
    vertex -5.0 20.29922320464461 13.61535780130648
    vertex -5.0 23.405960512445585 12.786629515807597
  endloop
endfacet
facet normal -1.0 0.0 0.0
  outer loop
    vertex -5.0 50.0 0.0
    vertex -5.0 23.405960512445585 12.786629515807597
    vertex -5.0 26.621328977048584 12.790222245257391
  endloop
endfacet
facet normal -1.0 0.0 0.0
  outer loop
    vertex -5.0 50.0 0.0
    vertex -5.0 26.621328977048584 12.790222245257391
    vertex -5.0 29.72620655123855 13.625891151081122
  endloop
endfacet
facet normal -1.0 0.0 0.0
  outer loop
    vertex -5.0 50.0 0.0
    vertex -5.0 29.72620655123855 13.625891151081122
    vertex -5.0 32.509000959387215 15.236686778355066
  endloop
endfacet
facet normal -1.0 0.0 0.0
  outer loop
    vertex -5.0 50.0 0.0
    vertex -5.0 32.509000959387215 15.236686778355066
    vertex -5.0 34.78006936136446 17.512836067046152
  endloop
endfacet
facet normal -1.0 0.0 0.0
  outer loop
    vertex -5.0 50.0 0.0
    vertex -5.0 34.78006936136446 17.512836067046152
    vertex -5.0 36.38464219869352 20.29922320464461
  endloop
endfacet
facet normal -1.0 0.0 0.0
  outer loop
    vertex -5.0 50.0 0.0
    vertex -5.0 36.38464219869352 20.29922320464461
    vertex -5.0 37.213370484192396 23.405960512445578
  endloop
endfacet
facet normal -1.0 0.0 0.0
  outer loop
    vertex -5.0 50.0 0.0
    vertex -5.0 37.213370484192396 23.405960512445578
    vertex -5.0 50.0 50.0
  endloop
endfacet
facet normal -1.0 0.0 0.0
  outer loop
    vertex -5.0 50.0 0.0
    vertex -5.0 50.0 50.0
    vertex -5.0 55.0 50.0
  endloop
endfacet
facet normal -1.0 0.0 0.0
  outer loop
    vertex -5.0 50.0 0.0
    vertex -5.0 55.0 50.0
    vertex -5.0 55.0 0.0
  endloop
endfacet
facet normal 2.2379728247093788e-16 -0.25773959572290256 -0.9662144176095671
  outer loop
    vertex 0.0 29.70077679535538 36.38464219869352
    vertex -5.0 26.59403948755441 37.2133704841924
    vertex -5.0 29.70077679535538 36.38464219869352
  endloop
endfacet
facet normal 2.2379728247093788e-16 -0.25773959572290256 -0.9662144176095671
  outer loop
    vertex -5.0 26.59403948755441 37.2133704841924
    vertex 0.0 29.70077679535538 36.38464219869352
    vertex 0.0 26.59403948755441 37.2133704841924
  endloop
endfacet
facet normal 2.2379728247093788e-16 -0.25773959572290256 -0.9662144176095671
  outer loop
    vertex 0.0 26.59403948755441 37.2133704841924
    vertex 0.0 29.70077679535538 36.38464219869352
    vertex 0.0 28.1474081414549 36.79900634144296
  endloop
endfacet
facet normal -1.8821018334321524e-16 0.0011173609639428582 -0.9999993757520433
  outer loop
    vertex 0.0 26.59403948755441 37.2133704841924
    vertex -5.0 23.37867102295141 37.20977775474261
    vertex -5.0 26.59403948755441 37.2133704841924
  endloop
endfacet
facet normal -1.8821018334321524e-16 0.0011173609639428582 -0.9999993757520433
  outer loop
    vertex -5.0 23.37867102295141 37.20977775474261
    vertex 0.0 26.59403948755441 37.2133704841924
    vertex 0.0 23.37867102295141 37.20977775474261
  endloop
endfacet
facet normal -1.8821018334321524e-16 0.0011173609639428582 -0.9999993757520433
  outer loop
    vertex 0.0 23.37867102295141 37.20977775474261
    vertex 0.0 26.59403948755441 37.2133704841924
    vertex 0.0 24.986355255252914 37.21157411946751
  endloop
endfacet
facet normal -1.8011915468353125e-16 0.25989817134762094 -0.9656360290141222
  outer loop
    vertex 0.0 23.37867102295141 37.20977775474261
    vertex -5.0 20.27379344876145 36.37410884891887
    vertex -5.0 23.37867102295141 37.20977775474261
  endloop
endfacet
facet normal -1.8011915468353125e-16 0.25989817134762094 -0.9656360290141222
  outer loop
    vertex -5.0 20.27379344876145 36.37410884891887
    vertex 0.0 23.37867102295141 37.20977775474261
    vertex 0.0 20.27379344876145 36.37410884891887
  endloop
endfacet
facet normal -1.8011915468353125e-16 0.25989817134762094 -0.9656360290141222
  outer loop
    vertex 0.0 20.27379344876145 36.37410884891887
    vertex 0.0 23.37867102295141 37.20977775474261
    vertex 0.0 21.826232235856427 36.79194330183074
  endloop
endfacet
facet normal -2.0008531936059966e-16 0.500967350855992 -0.8654661826878791
  outer loop
    vertex 0.0 20.27379344876145 36.37410884891887
    vertex -5.0 17.49099904061278 34.763313221644935
    vertex -5.0 20.27379344876145 36.37410884891887
  endloop
endfacet
facet normal -2.0008531936059966e-16 0.500967350855992 -0.8654661826878791
  outer loop
    vertex -5.0 17.49099904061278 34.763313221644935
    vertex 0.0 20.27379344876145 36.37410884891887
    vertex 0.0 17.49099904061278 34.763313221644935
  endloop
endfacet
facet normal -2.0008531936059966e-16 0.500967350855992 -0.8654661826878791
  outer loop
    vertex 0.0 17.49099904061278 34.763313221644935
    vertex 0.0 20.27379344876145 36.37410884891887
    vertex 0.0 18.882396244687115 35.5687110352819
  endloop
endfacet
facet normal -6.602161856889301e-17 0.7078964332912218 -0.7063162462619468
  outer loop
    vertex -5.0 17.49099904061278 34.763313221644935
    vertex 0.0 15.219930638635535 32.48716393295385
    vertex -5.0 15.219930638635535 32.48716393295385
  endloop
endfacet
facet normal -6.602161856889301e-17 0.7078964332912218 -0.7063162462619468
  outer loop
    vertex 0.0 15.219930638635535 32.48716393295385
    vertex -5.0 17.49099904061278 34.763313221644935
    vertex 0.0 16.355464839624158 33.62523857729939
  endloop
endfacet
facet normal -6.602161856889301e-17 0.7078964332912218 -0.7063162462619468
  outer loop
    vertex 0.0 16.355464839624158 33.62523857729939
    vertex -5.0 17.49099904061278 34.763313221644935
    vertex 0.0 17.49099904061278 34.763313221644935
  endloop
endfacet
facet normal 4.403409769310262e-17 0.8665835436518212 -0.49903202489605036
  outer loop
    vertex -5.0 15.219930638635535 32.48716393295385
    vertex 0.0 13.61535780130648 29.700776795355388
    vertex -5.0 13.61535780130648 29.700776795355388
  endloop
endfacet
facet normal 4.403409769310262e-17 0.8665835436518212 -0.49903202489605036
  outer loop
    vertex 0.0 13.61535780130648 29.700776795355388
    vertex -5.0 15.219930638635535 32.48716393295385
    vertex 0.0 14.417644219971002 31.09397036415461
  endloop
endfacet
facet normal 4.403409769310262e-17 0.8665835436518212 -0.49903202489605036
  outer loop
    vertex 0.0 14.417644219971002 31.09397036415461
    vertex -5.0 15.219930638635535 32.48716393295385
    vertex 0.0 15.219930638635535 32.48716393295385
  endloop
endfacet
facet normal -1.5326385933107848e-18 0.9662144176095673 -0.2577395957229013
  outer loop
    vertex -5.0 13.61535780130648 29.700776795355388
    vertex 0.0 12.786629515807597 26.59403948755441
    vertex -5.0 12.786629515807597 26.59403948755441
  endloop
endfacet
facet normal -1.5326385933107848e-18 0.9662144176095673 -0.2577395957229013
  outer loop
    vertex 0.0 12.786629515807597 26.59403948755441
    vertex -5.0 13.61535780130648 29.700776795355388
    vertex 0.0 13.200993658557039 28.147408141454893
  endloop
endfacet
facet normal -1.5326385933107848e-18 0.9662144176095673 -0.2577395957229013
  outer loop
    vertex 0.0 13.200993658557039 28.147408141454893
    vertex -5.0 13.61535780130648 29.700776795355388
    vertex 0.0 13.61535780130648 29.700776795355388
  endloop
endfacet
facet normal 2.084202600717369e-20 0.9999993757520433 0.0011173609639428582
  outer loop
    vertex -5.0 12.786629515807597 26.59403948755441
    vertex 0.0 12.790222245257391 23.37867102295141
    vertex -5.0 12.790222245257391 23.37867102295141
  endloop
endfacet
facet normal 2.084202600717369e-20 0.9999993757520433 0.0011173609639428582
  outer loop
    vertex 0.0 12.790222245257391 23.37867102295141
    vertex -5.0 12.786629515807597 26.59403948755441
    vertex 0.0 12.788425880532495 24.98635525525291
  endloop
endfacet
facet normal 2.084202600717369e-20 0.9999993757520433 0.0011173609639428582
  outer loop
    vertex 0.0 12.788425880532495 24.98635525525291
    vertex -5.0 12.786629515807597 26.59403948755441
    vertex 0.0 12.786629515807597 26.59403948755441
  endloop
endfacet
facet normal -3.468349097474448e-17 0.9656360290141227 0.2598981713476194
  outer loop
    vertex -5.0 12.790222245257391 23.37867102295141
    vertex 0.0 13.625891151081122 20.27379344876145
    vertex -5.0 13.625891151081122 20.27379344876145
  endloop
endfacet
facet normal -3.468349097474448e-17 0.9656360290141227 0.2598981713476194
  outer loop
    vertex 0.0 13.625891151081122 20.27379344876145
    vertex -5.0 12.790222245257391 23.37867102295141
    vertex 0.0 13.20805669816926 21.82623223585642
  endloop
endfacet
facet normal -3.468349097474448e-17 0.9656360290141227 0.2598981713476194
  outer loop
    vertex 0.0 13.20805669816926 21.82623223585642
    vertex -5.0 12.790222245257391 23.37867102295141
    vertex 0.0 12.790222245257391 23.37867102295141
  endloop
endfacet
facet normal -2.12671368668232e-17 0.8654661826878784 0.5009673508559934
  outer loop
    vertex -5.0 13.625891151081122 20.27379344876145
    vertex 0.0 15.23668677835507 17.49099904061278
    vertex -5.0 15.23668677835507 17.49099904061278
  endloop
endfacet
facet normal -2.12671368668232e-17 0.8654661826878784 0.5009673508559934
  outer loop
    vertex 0.0 15.23668677835507 17.49099904061278
    vertex -5.0 13.625891151081122 20.27379344876145
    vertex 0.0 14.431288964718098 18.88239624468711
  endloop
endfacet
facet normal -2.12671368668232e-17 0.8654661826878784 0.5009673508559934
  outer loop
    vertex 0.0 14.431288964718098 18.88239624468711
    vertex -5.0 13.625891151081122 20.27379344876145
    vertex 0.0 13.625891151081122 20.27379344876145
  endloop
endfacet
facet normal -1.4737537923342599e-19 0.7063162462619471 0.7078964332912213
  outer loop
    vertex 0.0 15.23668677835507 17.49099904061278
    vertex -5.0 17.512836067046152 15.219930638635535
    vertex -5.0 15.23668677835507 17.49099904061278
  endloop
endfacet
facet normal -1.4737537923342599e-19 0.7063162462619471 0.7078964332912213
  outer loop
    vertex -5.0 17.512836067046152 15.219930638635535
    vertex 0.0 15.23668677835507 17.49099904061278
    vertex 0.0 17.512836067046152 15.219930638635535
  endloop
endfacet
facet normal -1.4737537923342599e-19 0.7063162462619471 0.7078964332912213
  outer loop
    vertex 0.0 17.512836067046152 15.219930638635535
    vertex 0.0 15.23668677835507 17.49099904061278
    vertex 0.0 16.374761422700608 16.355464839624158
  endloop
endfacet
facet normal 9.057607820311765e-17 0.4990320248960507 0.8665835436518209
  outer loop
    vertex 0.0 17.512836067046152 15.219930638635535
    vertex -5.0 20.29922320464461 13.61535780130648
    vertex -5.0 17.512836067046152 15.219930638635535
  endloop
endfacet
facet normal 9.057607820311765e-17 0.4990320248960507 0.8665835436518209
  outer loop
    vertex -5.0 20.29922320464461 13.61535780130648
    vertex 0.0 17.512836067046152 15.219930638635535
    vertex 0.0 20.29922320464461 13.61535780130648
  endloop
endfacet
facet normal 9.057607820311765e-17 0.4990320248960507 0.8665835436518209
  outer loop
    vertex 0.0 20.29922320464461 13.61535780130648
    vertex 0.0 17.512836067046152 15.219930638635535
    vertex 0.0 18.906029635845385 14.417644219971002
  endloop
endfacet
facet normal -4.960855613905632e-17 0.2577395957229013 0.9662144176095673
  outer loop
    vertex 0.0 20.29922320464461 13.61535780130648
    vertex -5.0 23.405960512445585 12.786629515807597
    vertex -5.0 20.29922320464461 13.61535780130648
  endloop
endfacet
facet normal -4.960855613905632e-17 0.2577395957229013 0.9662144176095673
  outer loop
    vertex -5.0 23.405960512445585 12.786629515807597
    vertex 0.0 20.29922320464461 13.61535780130648
    vertex 0.0 23.405960512445585 12.786629515807597
  endloop
endfacet
facet normal -4.960855613905632e-17 0.2577395957229013 0.9662144176095673
  outer loop
    vertex 0.0 23.405960512445585 12.786629515807597
    vertex 0.0 20.29922320464461 13.61535780130648
    vertex 0.0 21.852591858545104 13.200993658557039
  endloop
endfacet
facet normal 7.086288842439085e-19 -0.001117360963942859 0.9999993757520433
  outer loop
    vertex 0.0 23.405960512445585 12.786629515807597
    vertex -5.0 26.621328977048584 12.790222245257391
    vertex -5.0 23.405960512445585 12.786629515807597
  endloop
endfacet
facet normal 7.086288842439085e-19 -0.001117360963942859 0.9999993757520433
  outer loop
    vertex -5.0 26.621328977048584 12.790222245257391
    vertex 0.0 23.405960512445585 12.786629515807597
    vertex 0.0 26.621328977048584 12.790222245257391
  endloop
endfacet
facet normal 7.086288842439085e-19 -0.001117360963942859 0.9999993757520433
  outer loop
    vertex 0.0 26.621328977048584 12.790222245257391
    vertex 0.0 23.405960512445585 12.786629515807597
    vertex 0.0 25.013644744747094 12.788425880532495
  endloop
endfacet
facet normal -8.31620455443403e-17 -0.2598981713476189 0.9656360290141227
  outer loop
    vertex 0.0 26.621328977048584 12.790222245257391
    vertex -5.0 29.72620655123855 13.625891151081122
    vertex -5.0 26.621328977048584 12.790222245257391
  endloop
endfacet
facet normal -8.31620455443403e-17 -0.2598981713476189 0.9656360290141227
  outer loop
    vertex -5.0 29.72620655123855 13.625891151081122
    vertex 0.0 26.621328977048584 12.790222245257391
    vertex 0.0 29.72620655123855 13.625891151081122
  endloop
endfacet
facet normal -8.31620455443403e-17 -0.2598981713476189 0.9656360290141227
  outer loop
    vertex 0.0 29.72620655123855 13.625891151081122
    vertex 0.0 26.621328977048584 12.790222245257391
    vertex 0.0 28.173767764143573 13.20805669816926
  endloop
endfacet
facet normal -7.267816823099156e-17 -0.5009673508559932 0.8654661826878784
  outer loop
    vertex 0.0 29.72620655123855 13.625891151081122
    vertex -5.0 32.509000959387215 15.236686778355066
    vertex -5.0 29.72620655123855 13.625891151081122
  endloop
endfacet
facet normal -7.267816823099156e-17 -0.5009673508559932 0.8654661826878784
  outer loop
    vertex -5.0 32.509000959387215 15.236686778355066
    vertex 0.0 29.72620655123855 13.625891151081122
    vertex 0.0 32.509000959387215 15.236686778355066
  endloop
endfacet
facet normal -7.267816823099156e-17 -0.5009673508559932 0.8654661826878784
  outer loop
    vertex 0.0 32.509000959387215 15.236686778355066
    vertex 0.0 29.72620655123855 13.625891151081122
    vertex 0.0 31.11760375531289 14.431288964718098
  endloop
endfacet
facet normal 4.701589798239518e-32 -0.7078964332912213 0.7063162462619472
  outer loop
    vertex 0.0 33.64453516037584 16.374761422700608
    vertex -5.0 32.509000959387215 15.236686778355066
    vertex 0.0 32.509000959387215 15.236686778355066
  endloop
endfacet
facet normal 4.701589798239518e-32 -0.7078964332912213 0.7063162462619472
  outer loop
    vertex -5.0 32.509000959387215 15.236686778355066
    vertex 0.0 33.64453516037584 16.374761422700608
    vertex -5.0 34.78006936136446 17.512836067046152
  endloop
endfacet
facet normal 4.701589798239518e-32 -0.7078964332912213 0.7063162462619472
  outer loop
    vertex -5.0 34.78006936136446 17.512836067046152
    vertex 0.0 33.64453516037584 16.374761422700608
    vertex 0.0 34.78006936136446 17.512836067046152
  endloop
endfacet
facet normal -1.3962594153004577e-16 -0.8665835436518209 0.4990320248960507
  outer loop
    vertex 0.0 35.58235578002899 18.906029635845382
    vertex -5.0 34.78006936136446 17.512836067046152
    vertex 0.0 34.78006936136446 17.512836067046152
  endloop
endfacet
facet normal -1.3962594153004577e-16 -0.8665835436518209 0.4990320248960507
  outer loop
    vertex -5.0 34.78006936136446 17.512836067046152
    vertex 0.0 35.58235578002899 18.906029635845382
    vertex -5.0 36.38464219869352 20.29922320464461
  endloop
endfacet
facet normal -1.3962594153004577e-16 -0.8665835436518209 0.4990320248960507
  outer loop
    vertex -5.0 36.38464219869352 20.29922320464461
    vertex 0.0 35.58235578002899 18.906029635845382
    vertex 0.0 36.38464219869352 20.29922320464461
  endloop
endfacet
facet normal 1.921883704877207e-16 -0.9662144176095675 0.2577395957229011
  outer loop
    vertex 0.0 36.79900634144296 21.852591858545104
    vertex -5.0 36.38464219869352 20.29922320464461
    vertex 0.0 36.38464219869352 20.29922320464461
  endloop
endfacet
facet normal 1.921883704877207e-16 -0.9662144176095675 0.2577395957229011
  outer loop
    vertex -5.0 36.38464219869352 20.29922320464461
    vertex 0.0 36.79900634144296 21.852591858545104
    vertex -5.0 37.213370484192396 23.405960512445578
  endloop
endfacet
facet normal 1.921883704877207e-16 -0.9662144176095675 0.2577395957229011
  outer loop
    vertex -5.0 37.213370484192396 23.405960512445578
    vertex 0.0 36.79900634144296 21.852591858545104
    vertex 0.0 37.213370484192396 23.405960512445578
  endloop
endfacet
facet normal 3.804090911351724e-19 -0.9999993757520433 -0.0011173609639411003
  outer loop
    vertex 0.0 37.21157411946751 25.01364474474709
    vertex -5.0 37.213370484192396 23.405960512445578
    vertex 0.0 37.213370484192396 23.405960512445578
  endloop
endfacet
facet normal 3.804090911351724e-19 -0.9999993757520433 -0.0011173609639411003
  outer loop
    vertex -5.0 37.213370484192396 23.405960512445578
    vertex 0.0 37.21157411946751 25.01364474474709
    vertex -5.0 37.20977775474261 26.62132897704859
  endloop
endfacet
facet normal 3.804090911351724e-19 -0.9999993757520433 -0.0011173609639411003
  outer loop
    vertex -5.0 37.20977775474261 26.62132897704859
    vertex 0.0 37.21157411946751 25.01364474474709
    vertex 0.0 37.20977775474261 26.62132897704859
  endloop
endfacet
facet normal -2.677841790949596e-16 -0.9656360290141226 -0.2598981713476198
  outer loop
    vertex 0.0 36.79194330183074 28.173767764143573
    vertex -5.0 37.20977775474261 26.62132897704859
    vertex 0.0 37.20977775474261 26.62132897704859
  endloop
endfacet
facet normal -2.677841790949596e-16 -0.9656360290141226 -0.2598981713476198
  outer loop
    vertex -5.0 37.20977775474261 26.62132897704859
    vertex 0.0 36.79194330183074 28.173767764143573
    vertex -5.0 36.37410884891888 29.726206551238544
  endloop
endfacet
facet normal -2.677841790949596e-16 -0.9656360290141226 -0.2598981713476198
  outer loop
    vertex -5.0 36.37410884891888 29.726206551238544
    vertex 0.0 36.79194330183074 28.173767764143573
    vertex 0.0 36.37410884891888 29.726206551238544
  endloop
endfacet
facet normal -5.1878769283626714e-17 -0.8654661826878786 -0.5009673508559931
  outer loop
    vertex 0.0 35.5687110352819 31.11760375531289
    vertex -5.0 36.37410884891888 29.726206551238544
    vertex 0.0 36.37410884891888 29.726206551238544
  endloop
endfacet
facet normal -5.1878769283626714e-17 -0.8654661826878786 -0.5009673508559931
  outer loop
    vertex -5.0 36.37410884891888 29.726206551238544
    vertex 0.0 35.5687110352819 31.11760375531289
    vertex -5.0 34.763313221644935 32.509000959387215
  endloop
endfacet
facet normal -5.1878769283626714e-17 -0.8654661826878786 -0.5009673508559931
  outer loop
    vertex -5.0 34.763313221644935 32.509000959387215
    vertex 0.0 35.5687110352819 31.11760375531289
    vertex 0.0 34.763313221644935 32.509000959387215
  endloop
endfacet
facet normal 9.382236295450203e-32 -0.7063162462619472 -0.7078964332912213
  outer loop
    vertex 0.0 34.763313221644935 32.509000959387215
    vertex -5.0 32.48716393295385 34.78006936136446
    vertex -5.0 34.763313221644935 32.509000959387215
  endloop
endfacet
facet normal 9.382236295450203e-32 -0.7063162462619472 -0.7078964332912213
  outer loop
    vertex -5.0 32.48716393295385 34.78006936136446
    vertex 0.0 34.763313221644935 32.509000959387215
    vertex 0.0 32.48716393295385 34.78006936136446
  endloop
endfacet
facet normal 9.382236295450203e-32 -0.7063162462619472 -0.7078964332912213
  outer loop
    vertex 0.0 32.48716393295385 34.78006936136446
    vertex 0.0 34.763313221644935 32.509000959387215
    vertex 0.0 33.62523857729939 33.64453516037584
  endloop
endfacet
facet normal 0.0 -0.49903202489604953 -0.8665835436518216
  outer loop
    vertex 0.0 32.48716393295385 34.78006936136446
    vertex -5.0 29.70077679535538 36.38464219869352
    vertex -5.0 32.48716393295385 34.78006936136446
  endloop
endfacet
facet normal 0.0 -0.49903202489604953 -0.8665835436518216
  outer loop
    vertex -5.0 29.70077679535538 36.38464219869352
    vertex 0.0 32.48716393295385 34.78006936136446
    vertex 0.0 29.70077679535538 36.38464219869352
  endloop
endfacet
facet normal 0.0 -0.49903202489604953 -0.8665835436518216
  outer loop
    vertex 0.0 29.70077679535538 36.38464219869352
    vertex 0.0 32.48716393295385 34.78006936136446
    vertex 0.0 31.093970364154615 35.58235578002899
  endloop
endfacet
facet normal -0.0 1.0 -0.0
  outer loop
    vertex -5.0 55.0 50.0
    vertex 0.0 55.0 0.0
    vertex -5.0 55.0 0.0
  endloop
endfacet
facet normal -0.0 1.0 -0.0
  outer loop
    vertex 0.0 55.0 0.0
    vertex -5.0 55.0 50.0
    vertex 12.5 55.0 0.0
  endloop
endfacet
facet normal -0.0 1.0 -0.0
  outer loop
    vertex 12.5 55.0 0.0
    vertex -5.0 55.0 50.0
    vertex 12.5 55.0 1.9999999999999998
  endloop
endfacet
facet normal -0.0 1.0 -0.0
  outer loop
    vertex 12.5 55.0 0.0
    vertex 12.5 55.0 1.9999999999999998
    vertex 37.5 55.0 0.0
  endloop
endfacet
facet normal -0.0 1.0 -0.0
  outer loop
    vertex 37.5 55.0 0.0
    vertex 12.5 55.0 1.9999999999999998
    vertex 55.0 55.0 0.0
  endloop
endfacet
facet normal -0.0 1.0 -0.0
  outer loop
    vertex 12.5 55.0 1.9999999999999998
    vertex -5.0 55.0 50.0
    vertex 12.5 55.0 18.0
  endloop
endfacet
facet normal -0.0 1.0 -0.0
  outer loop
    vertex 12.5 55.0 18.0
    vertex -5.0 55.0 50.0
    vertex 12.600632646564861 55.0 19.818993610256637
  endloop
endfacet
facet normal -0.0 1.0 -0.0
  outer loop
    vertex 12.600632646564861 55.0 19.818993610256637
    vertex -5.0 55.0 50.0
    vertex 12.90130233525221 55.0 21.615785869259824
  endloop
endfacet
facet normal -0.0 1.0 -0.0
  outer loop
    vertex 12.90130233525221 55.0 21.615785869259824
    vertex -5.0 55.0 50.0
    vertex 13.398339304204628 55.0 23.368446399768715
  endloop
endfacet
facet normal -0.0 1.0 -0.0
  outer loop
    vertex 13.398339304204628 55.0 23.368446399768715
    vertex -5.0 55.0 50.0
    vertex 14.085677071235782 55.0 25.05558346525028
  endloop
endfacet
facet normal -0.0 1.0 -0.0
  outer loop
    vertex 14.085677071235782 55.0 25.05558346525028
    vertex -5.0 55.0 50.0
    vertex 14.954926477027259 55.0 26.656605062306443
  endloop
endfacet
facet normal -0.0 1.0 -0.0
  outer loop
    vertex 14.954926477027259 55.0 26.656605062306443
    vertex -5.0 55.0 50.0
    vertex 15.995478077281948 55.0 28.151970252123473
  endloop
endfacet
facet normal -0.0 1.0 -0.0
  outer loop
    vertex 15.995478077281948 55.0 28.151970252123473
    vertex -5.0 55.0 50.0
    vertex 17.19463163410768 55.0 29.523427663369382
  endloop
endfacet
facet normal -0.0 1.0 -0.0
  outer loop
    vertex 17.19463163410768 55.0 29.523427663369382
    vertex -5.0 55.0 50.0
    vertex 18.537751126150777 55.0 30.754238255541473
  endloop
endfacet
facet normal -0.0 1.0 -0.0
  outer loop
    vertex 18.537751126150777 55.0 30.754238255541473
    vertex -5.0 55.0 50.0
    vertex 20.008443385535298 55.0 31.82937962387197
  endloop
endfacet
facet normal -0.0 1.0 -0.0
  outer loop
    vertex 20.008443385535298 55.0 31.82937962387197
    vertex -5.0 55.0 50.0
    vertex 21.58875818129164 55.0 32.73572935219029
  endloop
endfacet
facet normal -0.0 1.0 -0.0
  outer loop
    vertex 21.58875818129164 55.0 32.73572935219029
    vertex -5.0 55.0 50.0
    vertex 23.259407307197556 55.0 33.46222517586648
  endloop
endfacet
facet normal -0.0 1.0 -0.0
  outer loop
    vertex 23.259407307197556 55.0 33.46222517586648
    vertex -5.0 55.0 50.0
    vertex 25.0 55.0 33.99999999999999
  endloop
endfacet
facet normal -0.0 1.0 -0.0
  outer loop
    vertex 55.0 55.0 0.0
    vertex 37.5 55.0 1.9999999999999998
    vertex 55.0 55.0 50.0
  endloop
endfacet
facet normal -0.0 1.0 -0.0
  outer loop
    vertex 37.5 55.0 1.9999999999999998
    vertex 55.0 55.0 0.0
    vertex 12.5 55.0 1.9999999999999998
  endloop
endfacet
facet normal -0.0 1.0 -0.0
  outer loop
    vertex 55.0 55.0 50.0
    vertex 37.5 55.0 1.9999999999999998
    vertex 37.5 55.0 18.0
  endloop
endfacet
facet normal -0.0 1.0 -0.0
  outer loop
    vertex 55.0 55.0 50.0
    vertex 37.5 55.0 18.0
    vertex 37.399367353435146 55.0 19.818993610256637
  endloop
endfacet
facet normal -0.0 1.0 -0.0
  outer loop
    vertex 55.0 55.0 50.0
    vertex 37.399367353435146 55.0 19.818993610256637
    vertex 37.09869766474779 55.0 21.615785869259824
  endloop
endfacet
facet normal -0.0 1.0 -0.0
  outer loop
    vertex 55.0 55.0 50.0
    vertex 37.09869766474779 55.0 21.615785869259824
    vertex 36.601660695795374 55.0 23.368446399768715
  endloop
endfacet
facet normal -0.0 1.0 -0.0
  outer loop
    vertex 55.0 55.0 50.0
    vertex 36.601660695795374 55.0 23.368446399768715
    vertex 35.91432292876422 55.0 25.05558346525028
  endloop
endfacet
facet normal -0.0 1.0 -0.0
  outer loop
    vertex 55.0 55.0 50.0
    vertex 35.91432292876422 55.0 25.05558346525028
    vertex 35.045073522972736 55.0 26.656605062306443
  endloop
endfacet
facet normal -0.0 1.0 -0.0
  outer loop
    vertex 55.0 55.0 50.0
    vertex 35.045073522972736 55.0 26.656605062306443
    vertex 34.00452192271805 55.0 28.15197025212348
  endloop
endfacet
facet normal -0.0 1.0 -0.0
  outer loop
    vertex 55.0 55.0 50.0
    vertex 34.00452192271805 55.0 28.15197025212348
    vertex 32.80536836589232 55.0 29.523427663369382
  endloop
endfacet
facet normal -0.0 1.0 -0.0
  outer loop
    vertex 55.0 55.0 50.0
    vertex 32.80536836589232 55.0 29.523427663369382
    vertex 31.462248873849223 55.0 30.754238255541473
  endloop
endfacet
facet normal -0.0 1.0 -0.0
  outer loop
    vertex 55.0 55.0 50.0
    vertex 31.462248873849223 55.0 30.754238255541473
    vertex 29.991556614464702 55.0 31.829379623871976
  endloop
endfacet
facet normal -0.0 1.0 -0.0
  outer loop
    vertex 55.0 55.0 50.0
    vertex 29.991556614464702 55.0 31.829379623871976
    vertex 28.411241818708355 55.0 32.73572935219029
  endloop
endfacet
facet normal -0.0 1.0 -0.0
  outer loop
    vertex 55.0 55.0 50.0
    vertex 28.411241818708355 55.0 32.73572935219029
    vertex 26.740592692802444 55.0 33.46222517586648
  endloop
endfacet
facet normal -0.0 1.0 -0.0
  outer loop
    vertex 55.0 55.0 50.0
    vertex 26.740592692802444 55.0 33.46222517586648
    vertex 25.0 55.0 33.99999999999999
  endloop
endfacet
facet normal -0.0 1.0 -0.0
  outer loop
    vertex 55.0 55.0 50.0
    vertex 25.0 55.0 33.99999999999999
    vertex -5.0 55.0 50.0
  endloop
endfacet
facet normal -0.0 1.0 -0.0
  outer loop
    vertex 55.0 55.0 50.0
    vertex -5.0 55.0 50.0
    vertex 50.0 55.0 50.0
  endloop
endfacet
facet normal -0.2951927548375437 -0.0 -0.9554377203624639
  outer loop
    vertex 26.740592692802444 55.0 33.46222517586648
    vertex 25.0 50.0 33.99999999999999
    vertex 25.0 55.0 33.99999999999999
  endloop
endfacet
facet normal -0.2951927548375437 -0.0 -0.9554377203624639
  outer loop
    vertex 25.0 50.0 33.99999999999999
    vertex 26.740592692802444 55.0 33.46222517586648
    vertex 26.740592692802444 50.0 33.46222517586648
  endloop
endfacet
facet normal 0.2951927548375437 0.0 -0.9554377203624639
  outer loop
    vertex 25.0 55.0 33.99999999999999
    vertex 23.259407307197556 50.0 33.46222517586648
    vertex 23.259407307197556 55.0 33.46222517586648
  endloop
endfacet
facet normal 0.2951927548375437 0.0 -0.9554377203624639
  outer loop
    vertex 23.259407307197556 50.0 33.46222517586648
    vertex 25.0 55.0 33.99999999999999
    vertex 25.0 50.0 33.99999999999999
  endloop
endfacet
facet normal 0.398784572919499 0.0 -0.9170446359918437
  outer loop
    vertex 23.259407307197556 55.0 33.46222517586648
    vertex 21.58875818129164 50.0 32.73572935219029
    vertex 21.58875818129164 55.0 32.73572935219029
  endloop
endfacet
facet normal 0.398784572919499 0.0 -0.9170446359918437
  outer loop
    vertex 21.58875818129164 50.0 32.73572935219029
    vertex 23.259407307197556 55.0 33.46222517586648
    vertex 23.259407307197556 50.0 33.46222517586648
  endloop
endfacet
facet normal 0.4975091081655364 0.0 -0.8674587525020038
  outer loop
    vertex 21.58875818129164 55.0 32.73572935219029
    vertex 20.008443385535298 50.0 31.82937962387197
    vertex 20.008443385535298 55.0 31.82937962387197
  endloop
endfacet
facet normal 0.4975091081655364 0.0 -0.8674587525020038
  outer loop
    vertex 20.008443385535298 50.0 31.82937962387197
    vertex 21.58875818129164 55.0 32.73572935219029
    vertex 21.58875818129164 50.0 32.73572935219029
  endloop
endfacet
facet normal 0.5901613986274818 0.0 -0.8072852801643634
  outer loop
    vertex 20.008443385535298 55.0 31.82937962387197
    vertex 18.537751126150777 50.0 30.754238255541473
    vertex 18.537751126150777 55.0 30.754238255541473
  endloop
endfacet
facet normal 0.5901613986274818 0.0 -0.8072852801643634
  outer loop
    vertex 18.537751126150777 50.0 30.754238255541473
    vertex 20.008443385535298 55.0 31.82937962387197
    vertex 20.008443385535298 50.0 31.82937962387197
  endloop
endfacet
facet normal 0.675610595888182 0.0 -0.7372586538818081
  outer loop
    vertex 18.537751126150777 55.0 30.754238255541473
    vertex 17.19463163410768 50.0 29.523427663369382
    vertex 17.19463163410768 55.0 29.523427663369382
  endloop
endfacet
facet normal 0.675610595888182 0.0 -0.7372586538818081
  outer loop
    vertex 17.19463163410768 50.0 29.523427663369382
    vertex 18.537751126150777 55.0 30.754238255541473
    vertex 18.537751126150777 50.0 30.754238255541473
  endloop
endfacet
facet normal 0.7528137673985471 0.0 -0.6582335691950132
  outer loop
    vertex 15.995478077281948 55.0 28.151970252123473
    vertex 17.19463163410768 50.0 29.523427663369382
    vertex 15.995478077281948 50.0 28.151970252123473
  endloop
endfacet
facet normal 0.7528137673985471 0.0 -0.6582335691950132
  outer loop
    vertex 17.19463163410768 50.0 29.523427663369382
    vertex 15.995478077281948 55.0 28.151970252123473
    vertex 17.19463163410768 55.0 29.523427663369382
  endloop
endfacet
facet normal 0.8208286257756464 0.0 -0.5711745504723261
  outer loop
    vertex 14.954926477027259 55.0 26.656605062306443
    vertex 15.995478077281948 50.0 28.151970252123473
    vertex 14.954926477027259 50.0 26.656605062306443
  endloop
endfacet
facet normal 0.8208286257756464 0.0 -0.5711745504723261
  outer loop
    vertex 15.995478077281948 50.0 28.151970252123473
    vertex 14.954926477027259 55.0 26.656605062306443
    vertex 15.995478077281948 55.0 28.151970252123473
  endloop
endfacet
facet normal 0.8788250296969552 0.0 -0.4771441786065777
  outer loop
    vertex 14.085677071235782 55.0 25.05558346525028
    vertex 14.954926477027259 50.0 26.656605062306443
    vertex 14.085677071235782 50.0 25.05558346525028
  endloop
endfacet
facet normal 0.8788250296969552 0.0 -0.4771441786065777
  outer loop
    vertex 14.954926477027259 50.0 26.656605062306443
    vertex 14.085677071235782 55.0 25.05558346525028
    vertex 14.954926477027259 55.0 26.656605062306443
  endloop
endfacet
facet normal 0.9260951160190085 0.0 -0.3772901219032105
  outer loop
    vertex 13.398339304204628 55.0 23.368446399768715
    vertex 14.085677071235782 50.0 25.05558346525028
    vertex 13.398339304204628 50.0 23.368446399768715
  endloop
endfacet
facet normal 0.9260951160190085 0.0 -0.3772901219032105
  outer loop
    vertex 14.085677071235782 50.0 25.05558346525028
    vertex 13.398339304204628 55.0 23.368446399768715
    vertex 14.085677071235782 55.0 25.05558346525028
  endloop
endfacet
facet normal 0.9620619394549754 0.0 -0.27283112845152235
  outer loop
    vertex 12.90130233525221 55.0 21.615785869259824
    vertex 13.398339304204628 50.0 23.368446399768715
    vertex 12.90130233525221 50.0 21.615785869259824
  endloop
endfacet
facet normal 0.9620619394549754 0.0 -0.27283112845152235
  outer loop
    vertex 13.398339304204628 50.0 23.368446399768715
    vertex 12.90130233525221 55.0 21.615785869259824
    vertex 13.398339304204628 55.0 23.368446399768715
  endloop
endfacet
facet normal 0.9862865143613281 0.0 -0.16504215094630137
  outer loop
    vertex 12.600632646564861 55.0 19.818993610256637
    vertex 12.90130233525221 50.0 21.615785869259824
    vertex 12.600632646564861 50.0 19.818993610256637
  endloop
endfacet
facet normal 0.9862865143613281 0.0 -0.16504215094630137
  outer loop
    vertex 12.90130233525221 50.0 21.615785869259824
    vertex 12.600632646564861 55.0 19.818993610256637
    vertex 12.90130233525221 55.0 21.615785869259824
  endloop
endfacet
facet normal 0.9984731726865508 0.0 -0.05523878551573691
  outer loop
    vertex 12.5 55.0 18.0
    vertex 12.600632646564861 50.0 19.818993610256637
    vertex 12.5 50.0 18.0
  endloop
endfacet
facet normal 0.9984731726865508 0.0 -0.05523878551573691
  outer loop
    vertex 12.600632646564861 50.0 19.818993610256637
    vertex 12.5 55.0 18.0
    vertex 12.600632646564861 55.0 19.818993610256637
  endloop
endfacet
facet normal 1.0 -0.0 -0.0
  outer loop
    vertex 12.5 55.0 1.9999999999999998
    vertex 12.5 50.0 18.0
    vertex 12.5 50.0 1.9999999999999998
  endloop
endfacet
facet normal 1.0 -0.0 -0.0
  outer loop
    vertex 12.5 50.0 18.0
    vertex 12.5 55.0 1.9999999999999998
    vertex 12.5 55.0 18.0
  endloop
endfacet
facet normal -1.0 0.0 0.0
  outer loop
    vertex 37.5 55.0 18.0
    vertex 37.5 50.0 1.9999999999999998
    vertex 37.5 50.0 18.0
  endloop
endfacet
facet normal -1.0 0.0 0.0
  outer loop
    vertex 37.5 50.0 1.9999999999999998
    vertex 37.5 55.0 18.0
    vertex 37.5 55.0 1.9999999999999998
  endloop
endfacet
facet normal -0.998473172686551 -0.0 -0.05523878551573383
  outer loop
    vertex 37.399367353435146 55.0 19.818993610256637
    vertex 37.5 50.0 18.0
    vertex 37.399367353435146 50.0 19.818993610256637
  endloop
endfacet
facet normal -0.998473172686551 -0.0 -0.05523878551573383
  outer loop
    vertex 37.5 50.0 18.0
    vertex 37.399367353435146 55.0 19.818993610256637
    vertex 37.5 55.0 18.0
  endloop
endfacet
facet normal -0.9862865143613279 -0.0 -0.1650421509463029
  outer loop
    vertex 37.09869766474779 55.0 21.615785869259824
    vertex 37.399367353435146 50.0 19.818993610256637
    vertex 37.09869766474779 50.0 21.615785869259824
  endloop
endfacet
facet normal -0.9862865143613279 -0.0 -0.1650421509463029
  outer loop
    vertex 37.399367353435146 50.0 19.818993610256637
    vertex 37.09869766474779 55.0 21.615785869259824
    vertex 37.399367353435146 55.0 19.818993610256637
  endloop
endfacet
facet normal -0.9620619394549754 -0.0 -0.27283112845152235
  outer loop
    vertex 36.601660695795374 55.0 23.368446399768715
    vertex 37.09869766474779 50.0 21.615785869259824
    vertex 36.601660695795374 50.0 23.368446399768715
  endloop
endfacet
facet normal -0.9620619394549754 -0.0 -0.27283112845152235
  outer loop
    vertex 37.09869766474779 50.0 21.615785869259824
    vertex 36.601660695795374 55.0 23.368446399768715
    vertex 37.09869766474779 55.0 21.615785869259824
  endloop
endfacet
facet normal -0.9260951160190086 -0.0 -0.3772901219032099
  outer loop
    vertex 35.91432292876422 55.0 25.05558346525028
    vertex 36.601660695795374 50.0 23.368446399768715
    vertex 35.91432292876422 50.0 25.05558346525028
  endloop
endfacet
facet normal -0.9260951160190086 -0.0 -0.3772901219032099
  outer loop
    vertex 36.601660695795374 50.0 23.368446399768715
    vertex 35.91432292876422 55.0 25.05558346525028
    vertex 36.601660695795374 55.0 23.368446399768715
  endloop
endfacet
facet normal -0.878825029696953 -0.0 -0.477144178606582
  outer loop
    vertex 35.045073522972736 55.0 26.656605062306443
    vertex 35.91432292876422 50.0 25.05558346525028
    vertex 35.045073522972736 50.0 26.656605062306443
  endloop
endfacet
facet normal -0.878825029696953 -0.0 -0.477144178606582
  outer loop
    vertex 35.91432292876422 50.0 25.05558346525028
    vertex 35.045073522972736 55.0 26.656605062306443
    vertex 35.91432292876422 55.0 25.05558346525028
  endloop
endfacet
facet normal -0.8208286257756482 -0.0 -0.5711745504723237
  outer loop
    vertex 34.00452192271805 55.0 28.15197025212348
    vertex 35.045073522972736 50.0 26.656605062306443
    vertex 34.00452192271805 50.0 28.15197025212348
  endloop
endfacet
facet normal -0.8208286257756482 -0.0 -0.5711745504723237
  outer loop
    vertex 35.045073522972736 50.0 26.656605062306443
    vertex 34.00452192271805 55.0 28.15197025212348
    vertex 35.045073522972736 55.0 26.656605062306443
  endloop
endfacet
facet normal -0.7528137673985464 -0.0 -0.6582335691950139
  outer loop
    vertex 32.80536836589232 55.0 29.523427663369382
    vertex 34.00452192271805 50.0 28.15197025212348
    vertex 32.80536836589232 50.0 29.523427663369382
  endloop
endfacet
facet normal -0.7528137673985464 -0.0 -0.6582335691950139
  outer loop
    vertex 34.00452192271805 50.0 28.15197025212348
    vertex 32.80536836589232 55.0 29.523427663369382
    vertex 34.00452192271805 55.0 28.15197025212348
  endloop
endfacet
facet normal -0.675610595888182 -0.0 -0.7372586538818081
  outer loop
    vertex 32.80536836589232 55.0 29.523427663369382
    vertex 31.462248873849223 50.0 30.754238255541473
    vertex 31.462248873849223 55.0 30.754238255541473
  endloop
endfacet
facet normal -0.675610595888182 -0.0 -0.7372586538818081
  outer loop
    vertex 31.462248873849223 50.0 30.754238255541473
    vertex 32.80536836589232 55.0 29.523427663369382
    vertex 32.80536836589232 50.0 29.523427663369382
  endloop
endfacet
facet normal -0.5901613986274838 -0.0 -0.807285280164362
  outer loop
    vertex 31.462248873849223 55.0 30.754238255541473
    vertex 29.991556614464702 50.0 31.829379623871976
    vertex 29.991556614464702 55.0 31.829379623871976
  endloop
endfacet
facet normal -0.5901613986274838 -0.0 -0.807285280164362
  outer loop
    vertex 29.991556614464702 50.0 31.829379623871976
    vertex 31.462248873849223 55.0 30.754238255541473
    vertex 31.462248873849223 50.0 30.754238255541473
  endloop
endfacet
facet normal -0.49750910816553406 -0.0 -0.8674587525020051
  outer loop
    vertex 29.991556614464702 55.0 31.829379623871976
    vertex 28.411241818708355 50.0 32.73572935219029
    vertex 28.411241818708355 55.0 32.73572935219029
  endloop
endfacet
facet normal -0.49750910816553406 -0.0 -0.8674587525020051
  outer loop
    vertex 28.411241818708355 50.0 32.73572935219029
    vertex 29.991556614464702 55.0 31.829379623871976
    vertex 29.991556614464702 50.0 31.829379623871976
  endloop
endfacet
facet normal -0.398784572919499 -0.0 -0.9170446359918437
  outer loop
    vertex 28.411241818708355 55.0 32.73572935219029
    vertex 26.740592692802444 50.0 33.46222517586648
    vertex 26.740592692802444 55.0 33.46222517586648
  endloop
endfacet
facet normal -0.398784572919499 -0.0 -0.9170446359918437
  outer loop
    vertex 26.740592692802444 50.0 33.46222517586648
    vertex 28.411241818708355 55.0 32.73572935219029
    vertex 28.411241818708355 50.0 32.73572935219029
  endloop
endfacet
facet normal 0.0 0.0 -1.0
  outer loop
    vertex 0.0 55.0 0.0
    vertex -5.0 50.0 0.0
    vertex -5.0 55.0 0.0
  endloop
endfacet
facet normal 0.0 0.0 -1.0
  outer loop
    vertex -5.0 50.0 0.0
    vertex 0.0 55.0 0.0
    vertex 0.0 50.0 0.0
  endloop
endfacet
facet normal 0.0 0.0 -1.0
  outer loop
    vertex 55.0 55.0 0.0
    vertex 37.5 50.0 0.0
    vertex 37.5 55.0 0.0
  endloop
endfacet
facet normal 0.0 0.0 -1.0
  outer loop
    vertex 37.5 50.0 0.0
    vertex 55.0 55.0 0.0
    vertex 50.0 50.0 0.0
  endloop
endfacet
facet normal 0.0 0.0 -1.0
  outer loop
    vertex 50.0 50.0 0.0
    vertex 55.0 55.0 0.0
    vertex 50.0 -0.0013259999999984903 0.0
  endloop
endfacet
facet normal 0.0 0.0 -1.0
  outer loop
    vertex 50.0 -0.0013259999999984903 0.0
    vertex 0.0 -5.0 0.0
    vertex 0.0 0.0 0.0
  endloop
endfacet
facet normal 0.0 0.0 -1.0
  outer loop
    vertex 0.0 -5.0 0.0
    vertex 50.0 -0.0013259999999984903 0.0
    vertex 55.0 -5.0 0.0
  endloop
endfacet
facet normal 0.0 0.0 -1.0
  outer loop
    vertex 55.0 -5.0 0.0
    vertex 50.0 -0.0013259999999984903 0.0
    vertex 55.0 55.0 0.0
  endloop
endfacet
facet normal 1.0 -0.0 -0.0
  outer loop
    vertex 55.0 -5.0 0.0
    vertex 55.0 12.5 12.5
    vertex 55.0 -5.0 50.0
  endloop
endfacet
facet normal 1.0 -0.0 -0.0
  outer loop
    vertex 55.0 12.5 12.5
    vertex 55.0 -5.0 0.0
    vertex 55.0 55.0 0.0
  endloop
endfacet
facet normal 1.0 -0.0 -0.0
  outer loop
    vertex 55.0 12.5 12.5
    vertex 55.0 55.0 0.0
    vertex 55.0 37.5 12.5
  endloop
endfacet
facet normal 1.0 -0.0 -0.0
  outer loop
    vertex 55.0 37.5 12.5
    vertex 55.0 55.0 0.0
    vertex 55.0 37.5 37.5
  endloop
endfacet
facet normal 1.0 -0.0 -0.0
  outer loop
    vertex 55.0 -5.0 50.0
    vertex 55.0 12.5 37.5
    vertex 55.0 55.0 50.0
  endloop
endfacet
facet normal 1.0 -0.0 -0.0
  outer loop
    vertex 55.0 12.5 37.5
    vertex 55.0 -5.0 50.0
    vertex 55.0 12.5 12.5
  endloop
endfacet
facet normal 1.0 -0.0 -0.0
  outer loop
    vertex 55.0 55.0 50.0
    vertex 55.0 12.5 37.5
    vertex 55.0 37.5 37.5
  endloop
endfacet
facet normal 1.0 -0.0 -0.0
  outer loop
    vertex 55.0 55.0 50.0
    vertex 55.0 37.5 37.5
    vertex 55.0 55.0 0.0
  endloop
endfacet
facet normal -0.0 0.0 1.0
  outer loop
    vertex 55.0 12.5 12.5
    vertex 50.0 37.5 12.5
    vertex 50.0 12.5 12.5
  endloop
endfacet
facet normal -0.0 0.0 1.0
  outer loop
    vertex 50.0 37.5 12.5
    vertex 55.0 12.5 12.5
    vertex 55.0 37.5 12.5
  endloop
endfacet
facet normal 0.0 1.0 0.0
  outer loop
    vertex 50.0 12.5 37.5
    vertex 55.0 12.5 12.5
    vertex 50.0 12.5 12.5
  endloop
endfacet
facet normal 0.0 1.0 0.0
  outer loop
    vertex 55.0 12.5 12.5
    vertex 50.0 12.5 37.5
    vertex 55.0 12.5 37.5
  endloop
endfacet
facet normal 0.0 0.0 -1.0
  outer loop
    vertex 55.0 37.5 37.5
    vertex 50.0 12.5 37.5
    vertex 50.0 37.5 37.5
  endloop
endfacet
facet normal 0.0 0.0 -1.0
  outer loop
    vertex 50.0 12.5 37.5
    vertex 55.0 37.5 37.5
    vertex 55.0 12.5 37.5
  endloop
endfacet
facet normal 0.0 -1.0 0.0
  outer loop
    vertex 55.0 37.5 37.5
    vertex 50.0 37.5 12.5
    vertex 55.0 37.5 12.5
  endloop
endfacet
facet normal 0.0 -1.0 0.0
  outer loop
    vertex 50.0 37.5 12.5
    vertex 55.0 37.5 37.5
    vertex 50.0 37.5 37.5
  endloop
endfacet
facet normal -6.29431736559877e-06 -0.9999999999542664 7.200618969916234e-06
  outer loop
    vertex 55.0 -5.0 50.0
    vertex 0.0 -5.0 0.0
    vertex 55.0 -5.0 0.0
  endloop
endfacet
facet normal -6.29431736559877e-06 -0.9999999999542664 7.200618969916234e-06
  outer loop
    vertex 0.0 -5.0 0.0
    vertex 55.0 -5.0 50.0
    vertex -5.0 -5.0 0.0
  endloop
endfacet
facet normal -6.29431736559877e-06 -0.9999999999542664 7.200618969916234e-06
  outer loop
    vertex -5.0 -5.0 0.0
    vertex 55.0 -5.0 50.0
    vertex -5.0 -5.0 50.0
  endloop
endfacet
facet normal -6.29431736559877e-06 -0.9999999999542664 7.200618969916234e-06
  outer loop
    vertex -5.0 -5.0 50.0
    vertex 55.0 -5.0 50.0
    vertex 49.99988383382703 -5.000047842661219 50.0
  endloop
endfacet
facet normal -6.29431736559877e-06 -0.9999999999542664 7.200618969916234e-06
  outer loop
    vertex -5.0 -5.0 50.0
    vertex 49.99988383382703 -5.000047842661219 50.0
    vertex -0.00011616617296607256 -4.998721842661221 50.0
  endloop
endfacet
facet normal 0.0 0.0 -1.0
  outer loop
    vertex 0.0 50.0 0.0
    vertex -5.0 -5.0 0.0
    vertex -5.0 50.0 0.0
  endloop
endfacet
facet normal 0.0 0.0 -1.0
  outer loop
    vertex -5.0 -5.0 0.0
    vertex 0.0 50.0 0.0
    vertex 0.0 -5.0 0.0
  endloop
endfacet
facet normal 0.0 0.0 -1.0
  outer loop
    vertex 0.0 -5.0 0.0
    vertex 0.0 50.0 0.0
    vertex 0.0 0.0 0.0
  endloop
endfacet
facet normal -1.0 0.0 0.0
  outer loop
    vertex 50.0 50.0 50.0
    vertex 50.0 12.5 37.5
    vertex 50.0 -0.0013259999999978955 50.0
  endloop
endfacet
facet normal -1.0 0.0 0.0
  outer loop
    vertex 50.0 12.5 37.5
    vertex 50.0 50.0 50.0
    vertex 50.0 37.5 37.5
  endloop
endfacet
facet normal -1.0 0.0 0.0
  outer loop
    vertex 50.0 37.5 37.5
    vertex 50.0 50.0 50.0
    vertex 50.0 37.5 12.5
  endloop
endfacet
facet normal -1.0 0.0 0.0
  outer loop
    vertex 50.0 -0.0013259999999984903 1.9999999999999998
    vertex 50.0 12.5 12.5
    vertex 50.0 50.0 1.9999999999999998
  endloop
endfacet
facet normal -1.0 0.0 0.0
  outer loop
    vertex 50.0 12.5 12.5
    vertex 50.0 -0.0013259999999984903 1.9999999999999998
    vertex 50.0 -0.0013259999999978955 50.0
  endloop
endfacet
facet normal -1.0 0.0 0.0
  outer loop
    vertex 50.0 12.5 12.5
    vertex 50.0 -0.0013259999999978955 50.0
    vertex 50.0 12.5 37.5
  endloop
endfacet
facet normal -1.0 0.0 0.0
  outer loop
    vertex 50.0 50.0 1.9999999999999998
    vertex 50.0 12.5 12.5
    vertex 50.0 37.5 12.5
  endloop
endfacet
facet normal -1.0 0.0 0.0
  outer loop
    vertex 50.0 50.0 1.9999999999999998
    vertex 50.0 37.5 12.5
    vertex 50.0 50.0 50.0
  endloop
endfacet
facet normal 2.651999999063995e-05 0.9999999996483449 -6.061881386085583e-18
  outer loop
    vertex 0.0 0.0 50.0
    vertex 50.0 -0.0013259999999984903 1.9999999999999998
    vertex 0.0 0.0 1.9999999999999998
  endloop
endfacet
facet normal 2.651999999063995e-05 0.9999999996483449 -6.061881386085583e-18
  outer loop
    vertex 50.0 -0.0013259999999984903 1.9999999999999998
    vertex 0.0 0.0 50.0
    vertex 50.0 -0.0013259999999978955 50.0
  endloop
endfacet
facet normal 1.0 -0.0 -0.0
  outer loop
    vertex 0.0 0.0 1.9999999999999998
    vertex 0.0 14.431288964718098 18.88239624468711
    vertex 0.0 0.0 50.0
  endloop
endfacet
facet normal 1.0 -0.0 -0.0
  outer loop
    vertex 0.0 14.431288964718098 18.88239624468711
    vertex 0.0 0.0 1.9999999999999998
    vertex 0.0 16.374761422700608 16.355464839624158
  endloop
endfacet
facet normal 1.0 -0.0 -0.0
  outer loop
    vertex 0.0 16.374761422700608 16.355464839624158
    vertex 0.0 0.0 1.9999999999999998
    vertex 0.0 18.906029635845385 14.417644219971002
  endloop
endfacet
facet normal 1.0 -0.0 -0.0
  outer loop
    vertex 0.0 18.906029635845385 14.417644219971002
    vertex 0.0 0.0 1.9999999999999998
    vertex 0.0 21.852591858545104 13.200993658557039
  endloop
endfacet
facet normal 1.0 -0.0 -0.0
  outer loop
    vertex 0.0 21.852591858545104 13.200993658557039
    vertex 0.0 0.0 1.9999999999999998
    vertex 0.0 50.0 1.9999999999999998
  endloop
endfacet
facet normal 1.0 -0.0 -0.0
  outer loop
    vertex 0.0 0.0 50.0
    vertex 0.0 14.431288964718098 18.88239624468711
    vertex 0.0 13.20805669816926 21.82623223585642
  endloop
endfacet
facet normal 1.0 -0.0 -0.0
  outer loop
    vertex 0.0 0.0 50.0
    vertex 0.0 13.20805669816926 21.82623223585642
    vertex 0.0 12.788425880532495 24.98635525525291
  endloop
endfacet
facet normal 1.0 -0.0 -0.0
  outer loop
    vertex 0.0 21.852591858545104 13.200993658557039
    vertex 0.0 50.0 1.9999999999999998
    vertex 0.0 25.013644744747094 12.788425880532495
  endloop
endfacet
facet normal 1.0 -0.0 -0.0
  outer loop
    vertex 0.0 25.013644744747094 12.788425880532495
    vertex 0.0 50.0 1.9999999999999998
    vertex 0.0 28.173767764143573 13.20805669816926
  endloop
endfacet
facet normal 1.0 -0.0 -0.0
  outer loop
    vertex 0.0 28.173767764143573 13.20805669816926
    vertex 0.0 50.0 1.9999999999999998
    vertex 0.0 31.11760375531289 14.431288964718098
  endloop
endfacet
facet normal 1.0 -0.0 -0.0
  outer loop
    vertex 0.0 31.11760375531289 14.431288964718098
    vertex 0.0 50.0 1.9999999999999998
    vertex 0.0 33.64453516037584 16.374761422700608
  endloop
endfacet
facet normal 1.0 -0.0 -0.0
  outer loop
    vertex 0.0 33.64453516037584 16.374761422700608
    vertex 0.0 50.0 1.9999999999999998
    vertex 0.0 35.58235578002899 18.906029635845382
  endloop
endfacet
facet normal 1.0 -0.0 -0.0
  outer loop
    vertex 0.0 35.58235578002899 18.906029635845382
    vertex 0.0 50.0 1.9999999999999998
    vertex 0.0 36.79900634144296 21.852591858545104
  endloop
endfacet
facet normal 1.0 -0.0 -0.0
  outer loop
    vertex 0.0 36.79900634144296 21.852591858545104
    vertex 0.0 50.0 1.9999999999999998
    vertex 0.0 37.21157411946751 25.01364474474709
  endloop
endfacet
facet normal 1.0 -0.0 -0.0
  outer loop
    vertex 0.0 0.0 50.0
    vertex 0.0 18.882396244687115 35.5687110352819
    vertex 0.0 50.0 50.0
  endloop
endfacet
facet normal 1.0 -0.0 -0.0
  outer loop
    vertex 0.0 18.882396244687115 35.5687110352819
    vertex 0.0 0.0 50.0
    vertex 0.0 16.355464839624158 33.62523857729939
  endloop
endfacet
facet normal 1.0 -0.0 -0.0
  outer loop
    vertex 0.0 16.355464839624158 33.62523857729939
    vertex 0.0 0.0 50.0
    vertex 0.0 14.417644219971002 31.09397036415461
  endloop
endfacet
facet normal 1.0 -0.0 -0.0
  outer loop
    vertex 0.0 14.417644219971002 31.09397036415461
    vertex 0.0 0.0 50.0
    vertex 0.0 13.200993658557039 28.147408141454893
  endloop
endfacet
facet normal 1.0 -0.0 -0.0
  outer loop
    vertex 0.0 13.200993658557039 28.147408141454893
    vertex 0.0 0.0 50.0
    vertex 0.0 12.788425880532495 24.98635525525291
  endloop
endfacet
facet normal 1.0 -0.0 -0.0
  outer loop
    vertex 0.0 50.0 50.0
    vertex 0.0 18.882396244687115 35.5687110352819
    vertex 0.0 21.826232235856427 36.79194330183074
  endloop
endfacet
facet normal 1.0 -0.0 -0.0
  outer loop
    vertex 0.0 50.0 50.0
    vertex 0.0 21.826232235856427 36.79194330183074
    vertex 0.0 24.986355255252914 37.21157411946751
  endloop
endfacet
facet normal 1.0 -0.0 -0.0
  outer loop
    vertex 0.0 50.0 50.0
    vertex 0.0 24.986355255252914 37.21157411946751
    vertex 0.0 28.1474081414549 36.79900634144296
  endloop
endfacet
facet normal 1.0 -0.0 -0.0
  outer loop
    vertex 0.0 50.0 50.0
    vertex 0.0 28.1474081414549 36.79900634144296
    vertex 0.0 31.093970364154615 35.58235578002899
  endloop
endfacet
facet normal 1.0 -0.0 -0.0
  outer loop
    vertex 0.0 50.0 50.0
    vertex 0.0 31.093970364154615 35.58235578002899
    vertex 0.0 33.62523857729939 33.64453516037584
  endloop
endfacet
facet normal 1.0 -0.0 -0.0
  outer loop
    vertex 0.0 50.0 50.0
    vertex 0.0 33.62523857729939 33.64453516037584
    vertex 0.0 35.5687110352819 31.11760375531289
  endloop
endfacet
facet normal 1.0 -0.0 -0.0
  outer loop
    vertex 0.0 50.0 50.0
    vertex 0.0 35.5687110352819 31.11760375531289
    vertex 0.0 36.79194330183074 28.173767764143573
  endloop
endfacet
facet normal 1.0 -0.0 -0.0
  outer loop
    vertex 0.0 50.0 50.0
    vertex 0.0 36.79194330183074 28.173767764143573
    vertex 0.0 37.21157411946751 25.01364474474709
  endloop
endfacet
facet normal 1.0 -0.0 -0.0
  outer loop
    vertex 0.0 50.0 50.0
    vertex 0.0 37.21157411946751 25.01364474474709
    vertex 0.0 50.0 1.9999999999999998
  endloop
endfacet
facet normal 0.0 -1.0 0.0
  outer loop
    vertex 50.0 50.0 50.0
    vertex 37.5 50.0 1.9999999999999998
    vertex 50.0 50.0 1.9999999999999998
  endloop
endfacet
facet normal 0.0 -1.0 0.0
  outer loop
    vertex 37.5 50.0 1.9999999999999998
    vertex 50.0 50.0 50.0
    vertex 37.5 50.0 18.0
  endloop
endfacet
facet normal 0.0 -1.0 0.0
  outer loop
    vertex 37.5 50.0 18.0
    vertex 50.0 50.0 50.0
    vertex 37.399367353435146 50.0 19.818993610256637
  endloop
endfacet
facet normal 0.0 -1.0 0.0
  outer loop
    vertex 37.399367353435146 50.0 19.818993610256637
    vertex 50.0 50.0 50.0
    vertex 37.09869766474779 50.0 21.615785869259824
  endloop
endfacet
facet normal 0.0 -1.0 0.0
  outer loop
    vertex 37.09869766474779 50.0 21.615785869259824
    vertex 50.0 50.0 50.0
    vertex 36.601660695795374 50.0 23.368446399768715
  endloop
endfacet
facet normal 0.0 -1.0 0.0
  outer loop
    vertex 36.601660695795374 50.0 23.368446399768715
    vertex 50.0 50.0 50.0
    vertex 35.91432292876422 50.0 25.05558346525028
  endloop
endfacet
facet normal 0.0 -1.0 0.0
  outer loop
    vertex 35.91432292876422 50.0 25.05558346525028
    vertex 50.0 50.0 50.0
    vertex 35.045073522972736 50.0 26.656605062306443
  endloop
endfacet
facet normal 0.0 -1.0 0.0
  outer loop
    vertex 35.045073522972736 50.0 26.656605062306443
    vertex 50.0 50.0 50.0
    vertex 34.00452192271805 50.0 28.15197025212348
  endloop
endfacet
facet normal 0.0 -1.0 0.0
  outer loop
    vertex 34.00452192271805 50.0 28.15197025212348
    vertex 50.0 50.0 50.0
    vertex 32.80536836589232 50.0 29.523427663369382
  endloop
endfacet
facet normal 0.0 -1.0 0.0
  outer loop
    vertex 32.80536836589232 50.0 29.523427663369382
    vertex 50.0 50.0 50.0
    vertex 31.462248873849223 50.0 30.754238255541473
  endloop
endfacet
facet normal 0.0 -1.0 0.0
  outer loop
    vertex 31.462248873849223 50.0 30.754238255541473
    vertex 50.0 50.0 50.0
    vertex 29.991556614464702 50.0 31.829379623871976
  endloop
endfacet
facet normal 0.0 -1.0 0.0
  outer loop
    vertex 29.991556614464702 50.0 31.829379623871976
    vertex 50.0 50.0 50.0
    vertex 28.411241818708355 50.0 32.73572935219029
  endloop
endfacet
facet normal 0.0 -1.0 0.0
  outer loop
    vertex 28.411241818708355 50.0 32.73572935219029
    vertex 50.0 50.0 50.0
    vertex 26.740592692802444 50.0 33.46222517586648
  endloop
endfacet
facet normal 0.0 -1.0 0.0
  outer loop
    vertex 26.740592692802444 50.0 33.46222517586648
    vertex 50.0 50.0 50.0
    vertex 25.0 50.0 33.99999999999999
  endloop
endfacet
facet normal 0.0 -1.0 0.0
  outer loop
    vertex 12.5 50.0 18.0
    vertex 0.0 50.0 1.9999999999999998
    vertex 12.5 50.0 1.9999999999999998
  endloop
endfacet
facet normal 0.0 -1.0 0.0
  outer loop
    vertex 0.0 50.0 1.9999999999999998
    vertex 12.5 50.0 18.0
    vertex 0.0 50.0 50.0
  endloop
endfacet
facet normal 0.0 -1.0 0.0
  outer loop
    vertex 0.0 50.0 50.0
    vertex 12.5 50.0 18.0
    vertex 12.600632646564861 50.0 19.818993610256637
  endloop
endfacet
facet normal 0.0 -1.0 0.0
  outer loop
    vertex 0.0 50.0 50.0
    vertex 12.600632646564861 50.0 19.818993610256637
    vertex 12.90130233525221 50.0 21.615785869259824
  endloop
endfacet
facet normal 0.0 -1.0 0.0
  outer loop
    vertex 0.0 50.0 50.0
    vertex 12.90130233525221 50.0 21.615785869259824
    vertex 13.398339304204628 50.0 23.368446399768715
  endloop
endfacet
facet normal 0.0 -1.0 0.0
  outer loop
    vertex 0.0 50.0 50.0
    vertex 13.398339304204628 50.0 23.368446399768715
    vertex 14.085677071235782 50.0 25.05558346525028
  endloop
endfacet
facet normal 0.0 -1.0 0.0
  outer loop
    vertex 0.0 50.0 50.0
    vertex 14.085677071235782 50.0 25.05558346525028
    vertex 14.954926477027259 50.0 26.656605062306443
  endloop
endfacet
facet normal 0.0 -1.0 0.0
  outer loop
    vertex 0.0 50.0 50.0
    vertex 14.954926477027259 50.0 26.656605062306443
    vertex 15.995478077281948 50.0 28.151970252123473
  endloop
endfacet
facet normal 0.0 -1.0 0.0
  outer loop
    vertex 0.0 50.0 50.0
    vertex 15.995478077281948 50.0 28.151970252123473
    vertex 17.19463163410768 50.0 29.523427663369382
  endloop
endfacet
facet normal 0.0 -1.0 0.0
  outer loop
    vertex 0.0 50.0 50.0
    vertex 17.19463163410768 50.0 29.523427663369382
    vertex 18.537751126150777 50.0 30.754238255541473
  endloop
endfacet
facet normal 0.0 -1.0 0.0
  outer loop
    vertex 0.0 50.0 50.0
    vertex 18.537751126150777 50.0 30.754238255541473
    vertex 20.008443385535298 50.0 31.82937962387197
  endloop
endfacet
facet normal 0.0 -1.0 0.0
  outer loop
    vertex 0.0 50.0 50.0
    vertex 20.008443385535298 50.0 31.82937962387197
    vertex 21.58875818129164 50.0 32.73572935219029
  endloop
endfacet
facet normal 0.0 -1.0 0.0
  outer loop
    vertex 0.0 50.0 50.0
    vertex 21.58875818129164 50.0 32.73572935219029
    vertex 23.259407307197556 50.0 33.46222517586648
  endloop
endfacet
facet normal 0.0 -1.0 0.0
  outer loop
    vertex 0.0 50.0 50.0
    vertex 23.259407307197556 50.0 33.46222517586648
    vertex 25.0 50.0 33.99999999999999
  endloop
endfacet
facet normal 0.0 -1.0 0.0
  outer loop
    vertex 0.0 50.0 50.0
    vertex 25.0 50.0 33.99999999999999
    vertex 50.0 50.0 50.0
  endloop
endfacet
facet normal 0.0 0.0 -1.0
  outer loop
    vertex 12.5 50.0 1.9999999999999998
    vertex 0.0 0.0 1.9999999999999998
    vertex 0.0 50.0 1.9999999999999998
  endloop
endfacet
facet normal 0.0 0.0 -1.0
  outer loop
    vertex 0.0 0.0 1.9999999999999998
    vertex 12.5 50.0 1.9999999999999998
    vertex 50.0 -0.0013259999999984903 1.9999999999999998
  endloop
endfacet
facet normal 0.0 0.0 -1.0
  outer loop
    vertex 50.0 -0.0013259999999984903 1.9999999999999998
    vertex 12.5 50.0 1.9999999999999998
    vertex 37.5 50.0 1.9999999999999998
  endloop
endfacet
facet normal 0.0 0.0 -1.0
  outer loop
    vertex 50.0 -0.0013259999999984903 1.9999999999999998
    vertex 37.5 50.0 1.9999999999999998
    vertex 50.0 50.0 1.9999999999999998
  endloop
endfacet
facet normal 0.0 -1.0 0.0
  outer loop
    vertex 12.5 50.0 1.9999999999999998
    vertex 0.0 50.0 0.0
    vertex 12.5 50.0 0.0
  endloop
endfacet
facet normal 0.0 -1.0 0.0
  outer loop
    vertex 0.0 50.0 0.0
    vertex 12.5 50.0 1.9999999999999998
    vertex 0.0 50.0 1.9999999999999998
  endloop
endfacet
facet normal 0.0 -1.0 0.0
  outer loop
    vertex 50.0 50.0 1.9999999999999998
    vertex 37.5 50.0 0.0
    vertex 50.0 50.0 0.0
  endloop
endfacet
facet normal 0.0 -1.0 0.0
  outer loop
    vertex 37.5 50.0 0.0
    vertex 50.0 50.0 1.9999999999999998
    vertex 37.5 50.0 1.9999999999999998
  endloop
endfacet
facet normal -1.0 0.0 0.0
  outer loop
    vertex 50.0 50.0 1.9999999999999998
    vertex 50.0 -0.0013259999999984903 0.0
    vertex 50.0 -0.0013259999999984903 1.9999999999999998
  endloop
endfacet
facet normal -1.0 0.0 0.0
  outer loop
    vertex 50.0 -0.0013259999999984903 0.0
    vertex 50.0 50.0 1.9999999999999998
    vertex 50.0 50.0 0.0
  endloop
endfacet
facet normal 2.6519999990643908e-05 0.9999999996483449 -0.0
  outer loop
    vertex 0.0 0.0 1.9999999999999998
    vertex 50.0 -0.0013259999999984903 0.0
    vertex 0.0 0.0 0.0
  endloop
endfacet
facet normal 2.6519999990643908e-05 0.9999999996483449 -0.0
  outer loop
    vertex 50.0 -0.0013259999999984903 0.0
    vertex 0.0 0.0 1.9999999999999998
    vertex 50.0 -0.0013259999999984903 1.9999999999999998
  endloop
endfacet
facet normal 1.0 -0.0 -0.0
  outer loop
    vertex 0.0 50.0 0.0
    vertex 0.0 0.0 1.9999999999999998
    vertex 0.0 0.0 0.0
  endloop
endfacet
facet normal 1.0 -0.0 -0.0
  outer loop
    vertex 0.0 0.0 1.9999999999999998
    vertex 0.0 50.0 0.0
    vertex 0.0 50.0 1.9999999999999998
  endloop
endfacet
facet normal -0.0 -0.0 1.0
  outer loop
    vertex 0.0 50.0 50.0
    vertex -5.0 55.0 50.0
    vertex -5.0 50.0 50.0
  endloop
endfacet
facet normal -0.0 -0.0 1.0
  outer loop
    vertex -5.0 55.0 50.0
    vertex 0.0 50.0 50.0
    vertex 50.0 55.0 50.0
  endloop
endfacet
facet normal -0.0 -0.0 1.0
  outer loop
    vertex 50.0 55.0 50.0
    vertex 0.0 50.0 50.0
    vertex 50.0 50.0 50.0
  endloop
endfacet
facet normal -0.0 -0.0 1.0
  outer loop
    vertex -0.00011616617296607256 -4.998721842661221 50.0
    vertex -5.0 50.0 50.0
    vertex -5.0 -5.0 50.0
  endloop
endfacet
facet normal -0.0 -0.0 1.0
  outer loop
    vertex -5.0 50.0 50.0
    vertex -0.00011616617296607256 -4.998721842661221 50.0
    vertex 0.0 50.0 50.0
  endloop
endfacet
facet normal -0.0 -0.0 1.0
  outer loop
    vertex 0.0 50.0 50.0
    vertex -0.00011616617296607256 -4.998721842661221 50.0
    vertex 0.0 0.0 50.0
  endloop
endfacet
facet normal -1.515429919211389e-05 -0.9999999984546202 5.348931567945549e-05
  outer loop
    vertex 25.0 -4.998721842661225 60.0
    vertex 49.99988383382703 -5.000047842661219 50.0
    vertex 55.0 -5.0 50.0
  endloop
endfacet
facet normal -1.515429919211389e-05 -0.9999999984546202 5.348931567945549e-05
  outer loop
    vertex 49.99988383382703 -5.000047842661219 50.0
    vertex 25.0 -4.998721842661225 60.0
    vertex -0.00011616617296607256 -4.998721842661221 50.0
  endloop
endfacet
facet normal -1.515429919211389e-05 -0.9999999984546202 5.348931567945549e-05
  outer loop
    vertex -0.00011616617296607256 -4.998721842661221 50.0
    vertex 25.0 -4.998721842661225 60.0
    vertex -5.0 -5.0 50.0
  endloop
endfacet
facet normal 0.0 -0.0 -1.0
  outer loop
    vertex 0.0 0.0 50.0
    vertex 49.99988383382703 -5.000047842661219 50.0
    vertex -0.00011616617296607256 -4.998721842661221 50.0
  endloop
endfacet
facet normal 0.0 -0.0 -1.0
  outer loop
    vertex 49.99988383382703 -5.000047842661219 50.0
    vertex 0.0 0.0 50.0
    vertex 50.0 -0.0013259999999978955 50.0
  endloop
endfacet
facet normal -0.0 1.0 -0.0
  outer loop
    vertex 25.0 55.0 60.0
    vertex 50.0 55.0 50.0
    vertex -5.0 55.0 50.0
  endloop
endfacet
facet normal -0.0 1.0 -0.0
  outer loop
    vertex 50.0 55.0 50.0
    vertex 25.0 55.0 60.0
    vertex 55.0 55.0 50.0
  endloop
endfacet
facet normal -0.31622776601683805 1.0106134997170211e-17 0.9486832980505138
  outer loop
    vertex 25.0 -4.998721842661225 60.0
    vertex -5.0 50.0 50.0
    vertex -5.0 -5.0 50.0
  endloop
endfacet
facet normal -0.31622776601683805 1.0106134997170211e-17 0.9486832980505138
  outer loop
    vertex -5.0 50.0 50.0
    vertex 25.0 -4.998721842661225 60.0
    vertex -5.0 55.0 50.0
  endloop
endfacet
facet normal -0.31622776601683805 1.0106134997170211e-17 0.9486832980505138
  outer loop
    vertex -5.0 55.0 50.0
    vertex 25.0 -4.998721842661225 60.0
    vertex 25.0 55.0 60.0
  endloop
endfacet
facet normal 0.316227766016838 3.1463507168560574e-18 0.9486832980505138
  outer loop
    vertex 55.0 -5.0 50.0
    vertex 25.0 55.0 60.0
    vertex 25.0 -4.998721842661225 60.0
  endloop
endfacet
facet normal 0.316227766016838 3.1463507168560574e-18 0.9486832980505138
  outer loop
    vertex 25.0 55.0 60.0
    vertex 55.0 -5.0 50.0
    vertex 55.0 55.0 50.0
  endloop
endfacet
facet normal 0.0 0.0 -1.0
  outer loop
    vertex 37.5 55.0 1.9999999999999998
    vertex 12.5 50.0 1.9999999999999998
    vertex 12.5 55.0 1.9999999999999998
  endloop
endfacet
facet normal 0.0 0.0 -1.0
  outer loop
    vertex 12.5 50.0 1.9999999999999998
    vertex 37.5 55.0 1.9999999999999998
    vertex 37.5 50.0 1.9999999999999998
  endloop
endfacet
facet normal 0.0 -1.0 0.0
  outer loop
    vertex 37.5 50.0 1.9999999999999998
    vertex 12.5 50.0 0.0
    vertex 37.5 50.0 0.0
  endloop
endfacet
facet normal 0.0 -1.0 0.0
  outer loop
    vertex 12.5 50.0 0.0
    vertex 37.5 50.0 1.9999999999999998
    vertex 12.5 50.0 1.9999999999999998
  endloop
endfacet
facet normal 0.0 0.0 -1.0
  outer loop
    vertex 37.5 55.0 0.0
    vertex 12.5 50.0 0.0
    vertex 12.5 55.0 0.0
  endloop
endfacet
facet normal 0.0 0.0 -1.0
  outer loop
    vertex 12.5 50.0 0.0
    vertex 37.5 55.0 0.0
    vertex 37.5 50.0 0.0
  endloop
endfacet
facet normal 0.0 0.0 -1.0
  outer loop
    vertex 12.5 50.0 0.0
    vertex 0.0 0.0 0.0
    vertex 0.0 50.0 0.0
  endloop
endfacet
facet normal 0.0 0.0 -1.0
  outer loop
    vertex 0.0 0.0 0.0
    vertex 12.5 50.0 0.0
    vertex 50.0 -0.0013259999999984903 0.0
  endloop
endfacet
facet normal 0.0 0.0 -1.0
  outer loop
    vertex 50.0 -0.0013259999999984903 0.0
    vertex 12.5 50.0 0.0
    vertex 37.5 50.0 0.0
  endloop
endfacet
facet normal 0.0 0.0 -1.0
  outer loop
    vertex 50.0 -0.0013259999999984903 0.0
    vertex 37.5 50.0 0.0
    vertex 50.0 50.0 0.0
  endloop
endfacet
endsolid Домик
